<?xml version="1.0" encoding="UTF-8" standalone="no"?>
<svg
   width="100"
   height="100"
   viewBox="0 0 100 100"
   version="1.1"
   id="svg68061"
   xmlns="http://www.w3.org/2000/svg"
   xmlns:svg="http://www.w3.org/2000/svg">
  <defs
     id="defs68058">
    <rect
       x="4667.2954"
       y="-1866.455"
       width="362.51978"
       height="80.189468"
       id="rect51332" />
  </defs>
  <g
     id="layer1"
     transform="translate(-45.721016,-22.263697)">
    <path
       id="rect67918"
       style="fill:#1a1a1a;stroke-width:0.574637;stroke-linecap:round;stroke-linejoin:round;stop-color:#000000"
       d="M 45.721016,22.263697 H 145.72102 V 122.2637 H 45.721016 Z" />
    <g
       aria-label="Web3Mining"
       transform="matrix(0.26458333,0,0,0.26458333,-1176.2121,558.08675)"
       id="text51330"
       style="font-size:45.3333px;line-height:1.25;font-family:Arial;-inkscape-font-specification:Arial;white-space:pre;shape-inside:url(#rect51332);fill:#ffffff;stroke-width:3;stroke-linecap:round;stroke-linejoin:round;stop-color:#000000">
      <path
         d="m 4679.3536,-1824.4857 -11.424,-31.9599 h 8.6133 l 7.48,23.12 h -2.0853 l 8.3413,-23.12 h 5.984 l 7.5253,23.12 h -1.9946 l 8.0693,-23.12 h 8.0693 l -11.4693,31.9599 h -6.7093 l -7.2534,-20.8079 h 1.0427 l -7.4347,20.8079 z"
         style="font-weight:900;font-family:Mulish;-inkscape-font-specification:'Mulish Heavy'"
         id="path68153" />
      <path
         d="m 4730.1721,-1823.987 q -6.256,0 -9.7467,-3.2187 -3.4453,-3.2186 -3.4453,-8.8399 0,-3.4907 1.4507,-6.2107 1.4506,-2.72 4.08,-4.216 2.6293,-1.5413 6.1653,-1.5413 3.4907,0 5.8027,1.5413 2.3573,1.496 3.5359,4.1707 1.1787,2.6293 1.1787,6.12 v 1.7226 h -15.4586 v -3.808 h 9.52 l -0.7707,0.6347 q 0,-2.584 -0.9973,-3.808 -0.952,-1.2693 -2.72,-1.2693 -2.04,0 -3.128,1.5413 -1.0427,1.496 -1.0427,4.5333 v 0.816 q 0,3.0374 1.496,4.4427 1.496,1.4053 4.3067,1.4053 1.8133,0 3.4,-0.408 1.6319,-0.408 3.0826,-1.3146 l 2.0853,5.2586 q -1.7226,1.1787 -3.9893,1.8133 -2.2666,0.6347 -4.8053,0.6347 z"
         style="font-weight:900;font-family:Mulish;-inkscape-font-specification:'Mulish Heavy'"
         id="path68155" />
      <path
         d="m 4758.1427,-1823.987 q -2.6294,0 -4.8054,-1.2693 -2.1306,-1.2694 -2.8106,-3.3547 h 0.4986 v 4.1253 h -7.9786 v -33.3653 h 8.0693 v 14.2347 h -0.544 q 0.7707,-1.9947 2.856,-3.1733 2.1307,-1.224 4.7147,-1.224 2.9919,0 5.2586,1.4506 2.312,1.4507 3.5813,4.1707 1.3147,2.72 1.3147,6.4373 0,3.7627 -1.3147,6.4374 -1.2693,2.6746 -3.5813,4.1253 -2.2667,1.4053 -5.2586,1.4053 z m -2.5387,-5.984 q 1.9947,0 3.264,-1.4053 1.3146,-1.4053 1.3146,-4.5787 0,-3.1733 -1.3146,-4.624 -1.2693,-1.4506 -3.264,-1.4506 -2.04,0 -3.3093,1.4506 -1.2694,1.4054 -1.2694,4.5787 0,3.1733 1.2694,4.624 1.2693,1.4053 3.3093,1.4053 z"
         style="font-weight:900;font-family:Mulish;-inkscape-font-specification:'Mulish Heavy'"
         id="path68157" />
      <path
         d="m 4782.4413,-1823.987 q -3.4,0 -6.5734,-0.9067 -3.128,-0.952 -5.032,-2.5386 l 2.5387,-6.1653 q 1.9947,1.4053 4.216,2.0853 2.2213,0.68 4.5787,0.68 2.448,0 3.672,-0.816 1.224,-0.8613 1.224,-2.5387 0,-1.5866 -1.1334,-2.3573 -1.088,-0.7707 -3.264,-0.7707 h -5.6213 v -6.528 h 4.8053 q 1.9494,0 3.0827,-0.816 1.1333,-0.8613 1.1333,-2.4026 0,-1.496 -1.088,-2.2667 -1.088,-0.7707 -3.1733,-0.7707 -4.352,0 -7.888,2.7654 l -2.5387,-6.0747 q 2.04,-1.6773 5.032,-2.584 2.992,-0.952 6.2107,-0.952 5.3493,0 8.3867,2.3573 3.0373,2.312 3.0373,6.4374 0,2.7653 -1.5867,4.76 -1.5413,1.9946 -4.2613,2.6293 v -0.6347 q 3.1733,0.4987 4.9866,2.6747 1.8134,2.1307 1.8134,5.3493 0,4.352 -3.3547,6.8907 -3.3546,2.4933 -9.2026,2.4933 z"
         style="font-weight:900;font-family:Mulish;-inkscape-font-specification:'Mulish Heavy'"
         id="path68159" />
      <path
         d="m 4800.0305,-1824.4857 v -31.9599 h 7.2533 l 10.472,23.4373 h -1.496 l 10.4267,-23.4373 h 7.2987 v 31.9599 h -7.5707 v -19.5839 h 1.9493 l -9.0666,19.5839 h -4.7147 l -9.112,-19.5839 h 2.0853 v 19.5839 z"
         style="font-weight:900;font-family:Mulish;-inkscape-font-specification:'Mulish Heavy'"
         id="path68161" />
      <path
         d="m 4839.5158,-1824.4857 v -23.0293 h 8.0693 v 23.0293 z m -0.1814,-26.2933 v -7.2533 h 8.4774 v 7.2533 z"
         style="font-weight:900;font-family:Mulish;-inkscape-font-specification:'Mulish Heavy'"
         id="path68163" />
      <path
         d="m 4852.5717,-1824.4857 v -16.7733 q 0,-1.5413 -0.091,-3.128 -0.091,-1.5866 -0.272,-3.128 h 7.7973 l 0.4534,3.9894 h -0.4987 q 1.1333,-2.176 3.2187,-3.3094 2.0853,-1.1786 4.7146,-1.1786 4.0347,0 6.0294,2.4026 2.04,2.3574 2.04,7.3894 v 13.7359 h -8.0694 v -13.3733 q 0,-2.2213 -0.7706,-3.0826 -0.7707,-0.9067 -2.2214,-0.9067 -1.904,0 -3.0826,1.2693 -1.1787,1.224 -1.1787,3.264 v 12.8293 z"
         style="font-weight:900;font-family:Mulish;-inkscape-font-specification:'Mulish Heavy'"
         id="path68165" />
      <path
         d="m 4880.8143,-1824.4857 v -23.0293 h 8.0693 v 23.0293 z m -0.1813,-26.2933 v -7.2533 h 8.4773 v 7.2533 z"
         style="font-weight:900;font-family:Mulish;-inkscape-font-specification:'Mulish Heavy'"
         id="path68167" />
      <path
         d="m 4893.8702,-1824.4857 v -16.7733 q 0,-1.5413 -0.091,-3.128 -0.091,-1.5866 -0.272,-3.128 h 7.7974 l 0.4533,3.9894 h -0.4987 q 1.1334,-2.176 3.2187,-3.3094 2.0853,-1.1786 4.7146,-1.1786 4.0347,0 6.0294,2.4026 2.04,2.3574 2.04,7.3894 v 13.7359 h -8.0694 v -13.3733 q 0,-2.2213 -0.7706,-3.0826 -0.7707,-0.9067 -2.2213,-0.9067 -1.904,0 -3.0827,1.2693 -1.1787,1.224 -1.1787,3.264 v 12.8293 z"
         style="font-weight:900;font-family:Mulish;-inkscape-font-specification:'Mulish Heavy'"
         id="path68169" />
      <path
         d="m 4933.4008,-1814.331 q -3.4453,0 -6.0747,-0.6347 -2.584,-0.5893 -4.6693,-1.8586 l 1.4053,-5.712 q 1.224,0.7253 2.6747,1.224 1.4507,0.4986 2.992,0.7253 1.5867,0.272 2.992,0.272 2.9013,0 4.3067,-1.36 1.4053,-1.3147 1.4053,-3.7627 v -4.0346 h 0.4533 q -0.7253,1.9947 -2.856,3.2186 -2.1306,1.1787 -4.7146,1.1787 -3.0827,0 -5.3947,-1.36 -2.2667,-1.4053 -3.5813,-3.9893 -1.2694,-2.584 -1.2694,-6.12 0,-3.536 1.2694,-6.12 1.3146,-2.584 3.5813,-3.944 2.312,-1.4053 5.3947,-1.4053 2.6746,0 4.7146,1.1786 2.04,1.1787 2.7654,3.128 l -0.3627,-0.091 0.4987,-3.7174 h 7.752 q -0.1814,1.5414 -0.272,3.128 -0.091,1.5867 -0.091,3.128 v 14.9147 q 0,5.8026 -3.3093,8.8853 -3.3094,3.128 -9.6107,3.128 z m 0.408,-16.728 q 2.0853,0 3.3093,-1.4053 1.224,-1.4053 1.224,-4.08 0,-2.72 -1.224,-4.08 -1.224,-1.4053 -3.3093,-1.4053 -2.1307,0 -3.3547,1.4053 -1.224,1.36 -1.224,4.08 0,2.6747 1.224,4.08 1.224,1.4053 3.3547,1.4053 z"
         style="font-weight:900;font-family:Mulish;-inkscape-font-specification:'Mulish Heavy'"
         id="path68171" />
    </g>
  </g>
</svg>
