<?xml version="1.0" encoding="UTF-8" standalone="no"?>
<svg xmlns="http://www.w3.org/2000/svg" xmlns:xlink="http://www.w3.org/1999/xlink" width="300" height="300">
  <defs>
    <linearGradient id="a">
      <stop offset="0" stop-color="#fff" stop-opacity="0"/>
      <stop offset="1" stop-color="#fff"/>
    </linearGradient>
    <linearGradient xlink:href="#a" id="d" x1="191" x2="148" y1="156" y2="10" gradientUnits="userSpaceOnUse"/>
    <linearGradient id="b">
      <stop offset="0" stop-color="#fff"/>
      <stop offset=".36" stop-color="#fafafa"/>
      <stop offset=".79" stop-color="#efefef"/>
      <stop offset="1" stop-color="#eaeaea"/>
    </linearGradient>
    <radialGradient xlink:href="#b" id="c" cx="-100" cy="-278" r="155" fx="-100" fy="-278" gradientTransform="matrix(1.267 0 0 1.73 26.67 204.12)" gradientUnits="userSpaceOnUse"/>
  </defs>
  <path fill="url(#c)" stroke="#f0f0f0" stroke-width="4" d="M54-394a154 154 0 1 1-308 0 154 154 0 1 1 308 0z" transform="translate(244.68973 524.47434) scale(.949753)"/>
  <path fill="url(#d)" d="M150 10C74 10 12 71 10 147c39 35 77 36 96 27 20-9 36-38 62-45 26-6 40-5 81 12 23 9 20-22 37-25-15-61-70-106-136-106z"/>
</svg>